<?xml version="1.0" encoding="UTF-8"?>
<svg width="170px" height="170px" viewBox="0 0 170 170" version="1.1" xmlns="http://www.w3.org/2000/svg" xmlns:xlink="http://www.w3.org/1999/xlink">
    <!-- Generator: Sketch 44.1 (41455) - http://www.bohemiancoding.com/sketch -->
    <title>icon-experiments</title>
    <desc>Created with Sketch.</desc>
    <defs></defs>
    <g id="Page-1" stroke="none" stroke-width="1" fill="none" fill-rule="evenodd">
        <g id="icon-experiments" fill-rule="nonzero">
            <g transform="translate(22.000000, -1.000000)" id="Group">
                <g transform="translate(0.326501, 70.359095)">
                    <path d="M24.0270394,90.6554382 C14.754136,90.6554382 8.19847368,87.8964824 5.16382455,82.5802632 C-2.31945613,69.4611127 14.5663158,45.9535472 45.3122325,26.6815267 L48.2902894,31.5478801 C18.3957149,50.2870335 5.17038597,71.1418845 10.0619123,79.7158961 C12.7840746,84.485968 21.1498641,86.0912089 33.0153422,84.1215933 L33.9314781,89.7681567 C30.3612545,90.3616145 27.0485658,90.6554382 24.0270394,90.6554382 Z" id="Shape" fill="#242D3C"></path>
                    <path d="M65.0620571,79.4129421 L62.6614035,74.2286947 C66.7302939,72.3005796 70.868079,70.1135012 74.9632149,67.7280502 C85.9363422,61.3128968 95.8087939,53.8818103 103.511061,46.240731 C115.693127,34.162414 121.115307,22.9016576 117.661548,16.852539 C114.645763,11.5603902 104.636342,10.1966825 90.886921,13.2021516 L89.6927455,7.60704887 C106.45057,3.94504127 118.124127,6.21180073 122.560456,13.9906618 C127.511035,22.6659346 122.010939,35.9112468 107.470048,50.3310241 C99.4347894,58.3024477 89.1719342,66.0331682 77.7887193,72.6881946 C73.5533333,75.1541567 69.2728377,77.4159362 65.0620571,79.4129421 Z" id="Shape" fill="#242D3C"></path>
                    <path d="M103.698061,90.6554382 C100.833189,90.6554382 97.7099606,90.3906648 94.3521623,89.8569678 C81.0284123,87.7387804 65.2539781,81.6415211 49.9363816,72.6881946 C19.9958771,55.2015274 0.572482455,32.0741068 3.75230264,17.6999801 L9.27290351,18.9499763 C7.02152193,29.1283986 22.67375,50.1558919 52.7643465,67.7305403 C67.4955175,76.3402423 82.5769035,82.1901581 95.22975,84.2021043 C106.808987,86.0455583 114.986136,84.409607 117.661548,79.7167261 C122.553075,71.1410547 109.324465,50.2812235 79.4216887,31.5379199 L82.4005658,26.6707367 C113.153864,45.9477372 130.044557,69.4611127 122.561276,82.5802632 C119.529088,87.8923323 112.968504,90.6554382 103.698061,90.6554382 Z" id="Shape" fill="#242D3C"></path>
                    <g id="Shape">
                        <path d="M19.3659825,11.6782518 C19.3659825,16.2084507 15.7350658,19.8812485 11.2618289,19.8812485 C6.78531141,19.8812485 3.15603509,16.2084507 3.15603509,11.6782518 C3.15603509,7.14971293 6.78613158,3.47774519 11.2618289,3.47774519 C15.7350658,3.47774519 19.3659825,7.14971293 19.3659825,11.6782518 Z" fill="#DAFFF4"></path>
                        <path d="M11.2618289,22.7431255 C5.23271929,22.7431255 0.328070175,17.7788311 0.328070175,11.6774218 C0.328070175,5.57601248 5.23271929,0.615037994 11.2618289,0.615037994 C17.2901184,0.615037994 22.1939474,5.57684247 22.1939474,11.6774218 C22.1939474,17.778001 17.2901184,22.7431255 11.2618289,22.7431255 Z M11.2618289,6.33962239 C8.35102632,6.33962239 5.984,8.73337351 5.984,11.6782518 C5.984,14.62313 8.35102632,17.0193713 11.2618289,17.0193713 C14.1693509,17.0193713 16.5380175,14.6223001 16.5380175,11.6782518 C16.5380175,8.73420352 14.1693509,6.33962239 11.2618289,6.33962239 Z" fill="#242D3C"></path>
                    </g>
                    <g transform="translate(30.346491, 73.870960)">
                        <ellipse id="Oval" fill="#DAFFF4" cx="11.0535044" cy="11.3495675" rx="8.10415351" ry="8.20133659"></ellipse>
                        <path d="M11.0526842,22.4102913 C5.02521491,22.4102913 0.121385965,17.4484867 0.121385965,11.3495675 C0.121385965,5.24732821 5.02521491,0.283033678 11.0526842,0.283033678 C17.0826141,0.283033678 21.9864429,5.24732821 21.9864429,11.3495675 C21.9864429,17.4484867 17.0817939,22.4102913 11.0526842,22.4102913 Z M11.0526842,6.00678807 C8.14352193,6.00678807 5.77731578,8.40385922 5.77731578,11.3495675 C5.77731578,14.2927858 8.14270175,16.6865368 11.0526842,16.6865368 C13.9634868,16.6865368 16.3305132,14.2927858 16.3305132,11.3495675 C16.329693,8.40385922 13.9626667,6.00678807 11.0526842,6.00678807 Z" id="Shape" fill="#242D3C"></path>
                    </g>
                </g>
                <g transform="translate(18.370360, 0.638188)">
                    <g fill="#242D3C">
                        <g id="Rectangle-path" transform="translate(26.245613, 103.751348)">
                            <rect x="33.4221491" y="0.135291758" width="5.65592983" height="18.1830463"></rect>
                            <rect x="0.0697149123" y="0.135291758" width="5.65592983" height="18.1830463"></rect>
                        </g>
                        <rect id="Rectangle-path" x="23.3561359" y="101.024763" width="44.9242894" height="5.72375439"></rect>
                        <rect id="Rectangle-path" x="23.3561359" y="110.114211" width="44.9242894" height="5.72375439"></rect>
                        <rect id="Rectangle-path" x="23.3561359" y="119.208639" width="44.9242894" height="5.72375439"></rect>
                        <rect id="Rectangle-path" x="35.8359255" y="128.299748" width="19.9663509" height="5.72375439"></rect>
                        <path d="M65.3204123,106.747687 L26.3079474,106.747687 L26.3079474,103.88664 C26.3079474,95.2611681 22.6868729,86.9735104 16.3715219,81.1468346 L16.0606754,80.8712711 C15.7867368,80.6297379 15.5168991,80.3882048 15.2470614,80.1641019 L15.1420789,80.0711407 C5.7133421,71.3452372 0.305105264,58.9465361 0.305105264,46.0572985 C0.304285087,20.6614585 20.7200922,0 45.815,0 C70.9140087,0 91.3314561,20.6614585 91.3314561,46.0581286 C91.3314561,58.9423861 85.9199387,71.3394272 76.4838202,80.0719707 L76.3878597,80.1558018 C76.0975175,80.401485 75.8055351,80.6679184 75.5110922,80.9351818 L75.2568377,81.1650949 C68.9464078,86.9594002 65.3195922,95.246228 65.3195922,103.88664 L65.3195922,106.747687 L65.3204123,106.747687 Z M31.8515132,101.024763 L59.7743859,101.024763 C60.4953202,91.8224334 64.6683729,83.1579508 71.4725483,76.9121196 L71.7325439,76.6755666 C72.0597939,76.3775927 72.3854035,76.0829388 72.7101929,75.8065452 C80.9504955,68.1588259 85.6747061,57.320545 85.6747061,46.0589586 C85.6747061,23.8188195 67.7940613,5.72458441 45.8141797,5.72458441 C23.8392193,5.72458441 5.95939474,23.8179896 5.95939474,46.0589586 C5.95939474,57.324695 10.677864,68.1604859 18.9083245,75.8015652 C19.1978465,76.0455883 19.4914693,76.3053817 19.7859123,76.5676651 L20.1303859,76.871449 C26.9632675,83.1753811 31.130579,91.8398637 31.8515132,101.024763 Z" id="Shape"></path>
                    </g>
                    <path d="M45.815,12.1530179 C27.3110219,12.1530179 12.3116535,27.3322552 12.3116535,46.0589586 C12.3116535,64.7806819 27.3110219,79.9624093 45.815,79.9624093 C64.3173377,79.9624093 79.3224474,64.7806819 79.3224474,46.0589586 C79.3232675,27.3322552 64.3173377,12.1530179 45.815,12.1530179 Z" id="Shape" fill="#DAFFF4"></path>
                    <polygon id="Shape" fill="#000000" points="48.5158377 67.2283837 43.1174429 65.5202216 48.2443597 48.9191757 35.6940351 48.9191757 43.1174429 24.8862135 48.5158377 26.5943757 43.388921 43.1937614 55.9367851 43.1937614"></polygon>
                </g>
            </g>
        </g>
    </g>
</svg>