<?xml version="1.0" encoding="UTF-8"?>
<svg width="168px" height="144px" viewBox="0 0 168 144" version="1.1" xmlns="http://www.w3.org/2000/svg" xmlns:xlink="http://www.w3.org/1999/xlink">
    <!-- Generator: Sketch 44.1 (41455) - http://www.bohemiancoding.com/sketch -->
    <title>icon-live-webinars</title>
    <desc>Created with Sketch.</desc>
    <defs></defs>
    <g id="Page-1" stroke="none" stroke-width="1" fill="none" fill-rule="evenodd">
        <g id="icon-live-webinars" fill-rule="nonzero">
            <g id="Group" transform="translate(0.806948, 40.035221)">
                <path d="M153.171347,91.1112113 L13.6211057,91.1112113 L13.6211057,7.24713208 C13.6211057,5.30233208 14.3816792,3.48179245 15.7602189,2.12076604 C17.0987283,0.767245283 18.9226038,0.00917358491 20.8715736,0.00917358491 L44.044883,0.00917358491 L44.044883,5.56836604 L20.8707396,5.56836604 C20.6097094,5.56836604 20.1076642,5.63091321 19.690683,6.05289811 C19.2436792,6.49573208 19.1811321,6.98943774 19.1811321,7.24713208 L19.1811321,85.5503509 L147.611321,85.5503509 L147.611321,7.24713208 C147.611321,6.98693585 147.54794,6.48906038 147.125955,6.06707547 C146.803211,5.74516604 146.377057,5.56836604 145.922547,5.56836604 L122.74757,5.56836604 L122.74757,0.00917358491 L145.922547,0.00917358491 C147.860675,0.00917358491 149.683717,0.763075472 151.054751,2.13327547 C152.419947,3.49680377 153.171347,5.31150566 153.171347,7.24713208 L153.171347,91.1112113 L153.171347,91.1112113 Z" id="Shape" fill="#242D3C"></path>
                <rect id="Rectangle-path" fill="#242D3C" x="67.1506415" y="0.00917358491" width="32.4911698" height="5.55919245"></rect>
                <rect id="Rectangle-path" fill="#D3F4FF" x="27.1504755" y="13.5327057" width="112.495672" height="74.7997434"></rect>
                <path d="M158.05086,103.036038 L8.74159245,103.036038 C6.41650566,103.036038 4.22235094,102.130355 2.56526792,100.484947 C0.90985283,98.832034 0,96.6353774 0,94.2936113 L0,85.5528528 L166.792453,85.5528528 L166.792453,94.2936113 C166.792453,96.6328755 165.883434,98.8286981 164.233023,100.477442 C162.574272,102.128687 160.380951,103.036038 158.05086,103.036038 Z M5.56002642,91.1120453 L5.56002642,94.2936113 C5.56002642,95.1475887 5.88944151,95.9465245 6.48655849,96.5436415 C7.09118113,97.1432604 7.89261887,97.4751774 8.74242642,97.4751774 L158.05086,97.4751774 C158.901502,97.4751774 159.702106,97.1432604 160.308396,96.5411396 C160.903011,95.9465245 161.232426,95.1475887 161.232426,94.2936113 L161.232426,91.1120453 L5.56002642,91.1120453 Z" id="Shape" fill="#242D3C"></path>
            </g>
            <g id="Group" transform="translate(25.825816, 0.005032)">
                <path d="M83.3978943,90.962766 C83.3978943,104.775683 72.1760981,115.9808 58.3798604,115.9808 C44.5677774,115.9808 33.3618264,104.774849 33.3618264,90.962766 C33.3618264,77.1523509 44.5686113,65.9438981 58.3798604,65.9438981 C72.1760981,65.9438981 83.3978943,77.1531849 83.3978943,90.962766 Z" id="Shape" fill="#FFFFFF"></path>
                <path d="M58.3798604,104.861581 C50.7149132,104.861581 44.4810453,98.6260453 44.4810453,90.962766 C44.4810453,83.2986528 50.7149132,77.063117 58.3798604,77.063117 C66.0431396,77.063117 72.2786755,83.2986528 72.2786755,90.962766 C72.2786755,98.6268792 66.0431396,104.861581 58.3798604,104.861581 Z M58.3798604,82.6223094 C53.7805585,82.6223094 50.0402377,86.3634642 50.0402377,90.962766 C50.0402377,95.561234 53.7805585,99.3023887 58.3798604,99.3023887 C62.9783283,99.3023887 66.7186491,95.561234 66.7186491,90.962766 C66.7186491,86.3642981 62.9783283,82.6223094 58.3798604,82.6223094 Z" id="Shape" fill="#242D3C"></path>
                <path d="M14.1031358,28.1745811 C6.43818868,28.1745811 0.204320755,21.9390453 0.204320755,14.2749321 C0.204320755,6.61165283 6.43818868,0.376116981 14.1031358,0.376116981 C21.768083,0.376116981 28.0019509,6.61165283 28.0019509,14.2749321 C28.0019509,21.9398792 21.768083,28.1745811 14.1031358,28.1745811 Z M14.1031358,5.93530943 C9.50466792,5.93530943 5.76351321,9.67646415 5.76351321,14.2749321 C5.76351321,18.874234 9.50466792,22.6145547 14.1031358,22.6145547 C18.7007698,22.6145547 22.4427585,18.8750679 22.4427585,14.2749321 C22.4427585,9.67646415 18.7007698,5.93530943 14.1031358,5.93530943 Z" id="Shape" fill="#242D3C"></path>
                <path d="M102.654083,28.1745811 C94.9908038,28.1745811 88.7552679,21.9390453 88.7552679,14.2749321 C88.7552679,6.61165283 94.9908038,0.376116981 102.654083,0.376116981 C110.318196,0.376116981 116.553732,6.61165283 116.553732,14.2749321 C116.553732,21.9398792 110.318196,28.1745811 102.654083,28.1745811 Z M102.654083,5.93530943 C98.0556151,5.93530943 94.3144604,9.67646415 94.3144604,14.2749321 C94.3144604,18.874234 98.0556151,22.6145547 102.654083,22.6145547 C107.253385,22.6145547 110.99454,18.8750679 110.99454,14.2749321 C110.99454,9.67646415 107.252551,5.93530943 102.654083,5.93530943 Z" id="Shape" fill="#242D3C"></path>
                <circle id="Oval" fill="#242D3C" cx="102.654083" cy="14.2749321" r="2.78043019"></circle>
                <g id="Shape" transform="translate(20.849057, 29.188679)" fill="#242D3C">
                    <path d="M55.1707736,36.7810717 L50.3554755,34.0014755 L53.1183925,29.2162 L57.9320226,31.9957962 L55.1707736,36.7810717 Z M60.6941057,27.2121887 L55.8804755,24.4325925 L58.6417245,19.6498189 L63.4561887,22.431083 L60.6941057,27.2121887 Z M66.2174377,17.6449736 L61.4021396,14.8653774 L64.1650566,10.0842717 L68.9786868,12.8638679 L66.2174377,17.6449736 Z M71.7407698,8.07859245 L66.9271396,5.29899623 L69.6883887,0.517890566 L74.5028528,3.29748679 L71.7407698,8.07859245 Z"></path>
                    <path d="M19.8858302,36.7810717 L17.1254151,31.9957962 L21.9390453,29.2162 L24.7002943,34.0014755 L19.8858302,36.7810717 Z M14.3633321,27.2146906 L11.6004151,22.431083 L16.4157132,19.6498189 L19.1769623,24.4350943 L14.3633321,27.2146906 Z M8.83916604,17.6474755 L6.07791698,12.8638679 L10.8932151,10.0842717 L13.6544642,14.8678792 L8.83916604,17.6474755 Z M3.31666792,8.08109434 L0.553750943,3.29665283 L5.36904906,0.517056604 L8.13029811,5.30066415 L3.31666792,8.08109434 Z"></path>
                </g>
                <circle id="Oval" fill="#242D3C" cx="14.1031358" cy="14.2749321" r="2.77959623"></circle>
                <circle id="Oval" fill="#242D3C" cx="58.3798604" cy="90.962766" r="2.77959623"></circle>
            </g>
        </g>
    </g>
</svg>