<?xml version="1.0" encoding="UTF-8"?>
<svg width="170px" height="170px" viewBox="0 0 170 170" version="1.1" xmlns="http://www.w3.org/2000/svg" xmlns:xlink="http://www.w3.org/1999/xlink">
    <!-- Generator: Sketch 44.1 (41455) - http://www.bohemiancoding.com/sketch -->
    <title>icon-community</title>
    <desc>Created with Sketch.</desc>
    <defs></defs>
    <g id="Page-1" stroke="none" stroke-width="1" fill="none" fill-rule="evenodd">
        <g id="icon-community" fill-rule="nonzero">
            <g transform="translate(0.000000, -1.000000)" id="Group">
                <g transform="translate(47.434054, 39.001419)">
                    <rect id="Rectangle-path" fill="#FFE1E1" x="0.241383589" y="32.9901158" width="33.5244038" height="80.8673026"></rect>
                    <g id="Shape" transform="translate(33.662337, 0.000000)" fill="#242D3C">
                        <path d="M74.9512466,59.773263 L61.0142179,59.773263 L61.0142179,53.9164437 L74.9512466,53.9164437 C76.3839484,53.9164437 77.732084,53.3584955 78.7485223,52.3464986 C79.7674239,51.3304114 80.3306522,49.9813549 80.3306522,48.5513059 C80.3306522,47.1253475 79.769066,45.7803816 78.7485223,44.7642943 C77.731263,43.7522975 76.3823064,43.1935312 74.9512466,43.1935312 L34.0260547,43.1910768 L36.2699369,38.907475 C38.10905,35.396983 39.5639197,31.5976997 40.4777291,27.9252229 C41.4022117,24.159482 41.8702004,20.2988407 41.8702004,16.4611066 L41.8702004,11.2964047 C41.8702004,9.86635577 41.3118982,8.52548039 40.2938178,7.52084649 C39.2691691,6.49330561 37.9226756,5.93453937 36.4883315,5.93453937 C35.0465983,5.93453937 33.7050309,6.49003319 32.7107604,7.49630332 C31.6639439,8.5262985 31.1023575,9.86717389 31.1023575,11.2972228 C31.1023575,15.5742798 30.3363342,19.140403 28.4594537,23.6056244 C26.6975175,27.7975984 24.1843368,31.515071 20.9896989,34.654143 C18.222819,37.3710723 14.9945187,39.495693 11.3926486,40.9715558 C7.77189475,42.4466006 3.97379786,43.1927131 0.101808045,43.1927131 L0.101808045,37.3358938 C3.20859546,37.3358938 6.25708957,36.7362222 9.16108193,35.5532412 C12.0494747,34.3694422 14.6422957,32.6628735 16.8640099,30.4842577 C19.536471,27.8556839 21.5570323,24.8663253 23.0381752,21.3435619 C24.6120948,17.5990917 25.2245851,14.7839896 25.2245851,11.2980409 C25.2245851,8.29068404 26.40523,5.46985529 28.5505883,3.35996046 C30.6278008,1.25497428 33.4587211,0.0785381555 36.4883315,0.0785381555 C39.4998791,0.0785381555 42.3266945,1.25088375 44.4482428,3.37795879 C46.5714331,5.47476391 47.7479728,8.29313835 47.7479728,11.2980409 L47.7479728,16.4627427 C47.7479728,20.7684335 47.222512,25.095395 46.1863688,29.3266381 C45.5237955,31.9863 44.6140913,34.6966845 43.4999501,37.3358938 L74.9512466,37.3367119 C77.9537629,37.3367119 80.778115,38.5033306 82.9037685,40.624679 C85.0351692,42.7468455 86.2084248,45.5627655 86.2084248,48.5521241 C86.2084248,51.5463912 85.0343482,54.3639475 82.9054106,56.4877501 C80.778115,58.605826 77.9537629,59.773263 74.9512466,59.773263 Z"></path>
                        <path d="M70.2393404,76.3603578 L61.0150389,76.3603578 L61.0150389,70.5035385 L70.2393404,70.5035385 C71.6802525,70.5035385 73.0316723,69.9447723 74.0489317,68.9319573 C75.0596229,67.9248691 75.617104,66.5774488 75.617104,65.1375827 C75.617104,63.7009888 75.0596229,62.3527506 74.0472896,61.343208 C73.0324933,60.3303931 71.6802525,59.7724449 70.2393404,59.7724449 L61.0150389,59.7724449 L61.0150389,53.9156256 L70.2393404,53.9156256 C73.250067,53.9156256 76.0793454,55.0830626 78.2049988,57.2019565 C80.3265472,59.3192143 81.4965186,62.1367706 81.4965186,65.1375827 C81.4965186,68.1416671 80.3265472,70.9592234 78.2033567,73.0732088 C76.0777033,75.1929208 73.250067,76.3603578 70.2393404,76.3603578 Z"></path>
                        <path d="M65.6267792,92.9417259 L61.0150389,92.9417259 L61.0150389,87.0849066 L65.6267792,87.0849066 C67.0627651,87.0849066 68.4158269,86.5261404 69.4330864,85.5125072 C70.4536299,84.4956018 71.0160372,83.1489996 71.0160372,81.7230412 C71.0160372,80.2929924 70.4536299,78.9472084 69.4330864,77.9303029 C68.4166479,76.9174879 67.0652282,76.3595397 65.6267792,76.3595397 L61.0150389,76.3595397 L61.0150389,70.5027204 L65.6267792,70.5027204 C68.6366846,70.5027204 71.4635,71.6693392 73.5899745,73.7890514 C75.7205542,75.9095815 76.8938097,78.727956 76.8938097,81.7230412 C76.8938097,84.7132179 75.7205542,87.5307743 73.5891535,89.6537587 C71.4618579,91.775107 68.6342216,92.9417259 65.6267792,92.9417259 Z"></path>
                        <path d="M61.0142179,109.526366 L0.10345011,109.526366 L0.10345011,103.667911 L61.0142179,103.667911 C62.4543091,103.667911 63.8049078,103.111599 64.8205251,102.098784 C65.8345004,101.090878 66.3919815,99.7434574 66.3919815,98.3044093 C66.3919815,96.8702699 65.8328583,95.5261221 64.8221672,94.5149433 C63.8040868,93.5004922 62.451846,92.9417259 61.0142179,92.9417259 L61.0142179,87.0849066 C64.0224815,87.0849066 66.8517597,88.2531617 68.9790553,90.3761461 C71.0997826,92.4884953 72.269754,95.3035974 72.269754,98.3035912 C72.269754,101.308494 71.0997826,104.12605 68.9782342,106.240035 C66.8542229,108.358111 64.0241234,109.526366 61.0142179,109.526366 Z"></path>
                    </g>
                    <rect id="Rectangle-path" fill="#FFFFFF" x="22.0094214" y="97.8020923" width="5.87859354" height="5.85681931"></rect>
                </g>
                <g transform="translate(3.098293, 6.277187)">
                    <rect id="Rectangle-path" fill="#FFE1E1" x="11.1685067" y="11.6907317" width="59.9304548" height="34.5895127"></rect>
                    <g id="Rectangle-path" transform="translate(21.346849, 19.634538)" fill="#242D3C">
                        <rect x="0.388348428" y="0.563674886" width="38.7970752" height="5.85845553"></rect>
                        <rect x="0.388348428" y="12.2789497" width="19.3993587" height="5.85681931"></rect>
                    </g>
                    <path d="M11.1685067,74.4836231 L11.1685067,57.4097554 L0,57.4097554 L0,0.560402463 L82.2666471,0.560402463 L82.2666471,57.4097554 L28.3018154,57.4097554 L11.1685067,74.4836231 Z M5.8777725,51.5529361 L17.0462791,51.5529361 L17.0462791,60.3410285 L25.8690957,51.5529361 L76.3888747,51.5529361 L76.3888747,6.41722178 L5.8777725,6.41722178 L5.8777725,51.5529361 Z" id="Shape" fill="#242D3C"></path>
                </g>
                <g transform="translate(132.821447, 1.368553)" fill="#242D3C">
                    <polygon id="Shape" points="11.0166157 41.0926354 5.13802212 41.0926354 5.13802212 0.677391591 27.6236424 0.677391591 27.6236424 6.5342109 11.0166157 6.5342109"></polygon>
                    <rect id="Rectangle-path" x="0.0311992394" y="19.419377" width="19.5430393" height="5.85845553"></rect>
                </g>
                <g transform="translate(7.203457, 100.359352)" fill="#242D3C">
                    <path d="M14.7129045,32.7806808 C11.6775469,32.7806808 8.82938477,31.6042445 6.69552098,29.4689886 C4.55673102,27.3509127 3.37362302,24.5129037 3.37362302,21.4875485 L3.37362302,0.565311097 L9.25139553,0.565311097 L9.25139553,21.4875485 C9.25139553,22.9421405 9.81872907,24.3051048 10.849125,25.3261007 C11.8828051,26.3601865 13.2506454,26.9230434 14.7129045,26.9230434 C16.1751635,26.9230434 17.544646,26.3593684 18.5733999,25.3342819 C19.6054378,24.3075591 20.1711293,22.9445948 20.1711293,21.4875485 L26.0489018,21.4875485 C26.0489018,24.5145398 24.8682569,27.3525489 22.7253618,29.4788057 C20.5939612,31.6066989 17.745799,32.7806808 14.7129045,32.7806808 Z" id="Shape"></path>
                    <rect id="Rectangle-path" x="0.017241685" y="8.09597486" width="12.5913562" height="5.85845553"></rect>
                </g>
            </g>
        </g>
    </g>
</svg>